<svg preserveAspectRatio="xMidYMid meet" data-bbox="35.241 16.884 129.759 165.719" viewBox="35.241 16.884 129.759 165.719" height="200" width="200" xmlns="http://www.w3.org/2000/svg" data-type="tint" role="presentation" aria-hidden="true">
    <g>
        <path d="M156.9 101.4c-.1-.4-.1-.8 0-1.1 5-4.6 8.1-11.2 8.1-18.5 0-12.9-9.6-23.5-22.1-25-.1 0-.2 0-.4-.1-1.4-.3-2.8-.4-4.3-.5-1.2-.1-2.3-.1-3.5-.2.4-1.7.8-3.5 1.1-5.2.3-1.8.5-3.5.6-5.3 0-.4.1-.9.1-1.3v-4.1c-.1-1.8-.3-3.6-.8-5.5-.5-1.8-1.2-3.6-2-5.3-6.5-14.6-22.2-14.7-30.2-8.6-1.7 1.3-3.2 2.7-4.4 4.4-1.2 1.7-2.1 3.5-2.7 5.3-.2.4-.4 1.3-.6 2.3-1 4.2 2.2 8.3 6.5 8.3h.5c.3 0 .5-.2.4-.5-.1-.5-.2-1.3-.2-1.5-.1-.7-.8-3.7.1-6.7.8-2.7 2-5.1 4-6.7 1.9-1.6 4.7-2.3 7.6-2.1l1 .1h.1l1.1.2c.7.1 1.5.3 2.3.5.4.1.7.2 1.1.3l1 .3h.1l1 .4c.3.1.7.3 1 .5l1 .5.9.6c.6.4 1.1.9 1.6 1.3l.1.1c1 1 1.8 2.1 2.4 3.4.6 1.3 1.1 2.7 1.4 4.1.3 1.5.4 3 .4 4.5s-.1 3.1-.3 4.6c-.2 1.6-.5 3.1-.9 4.6-.4 1.5-.9 3.1-1.4 4.5-.3.7-.6 1.5-.9 2.2-.2.4-.3.7-.5 1.1-.2.3-.3.7-.5 1l-1.3 2.4c-.5.9.1 2.1 1.2 2.2 0 0 6.9-.5 8.8-.5 10.6 0 19.2 8.6 19.2 19.2 0 7.3-4.1 13.7-10.2 17 1.6 2.8 2.4 6 2.4 9.4 0 10.6-8.6 19.2-19.2 19.2-2.2 0-13-1.9-16.5-2.5-3.5-.6-7-1.4-10.7-2-3.7-.6-7.5-1-11.5-.9-1 0-2 .1-3 .2l-.7.1c-.2 0-.5.1-.8.1-.5.1-1.1.2-1.6.3-2.1.4-4 1.2-5.8 2-1.8.8-3.4 1.6-5 2.5-1.6.8-3.1 1.6-4.7 2.2-1.5.7-3 1.2-4.6 1.5-.7.2-1.5.3-2.2.4h-.1l-1.1.1h-1.1c-.7 0-1.4-.1-2.2-.3-.8-.2-1.5-.4-2.3-.7-1.5-.5-2.9-1.2-4.2-2.1-2.6-1.7-4.6-4.1-5.5-6.9-.4-1.4-.6-2.9-.5-4.5 0-.4.1-.8.1-1.2l.2-1.1v-.1l.6-2.4c.9-3.2 2.6-6.1 4.8-8.4 1.2-1.1 2.5-2.2 3.9-3 .7-.4 1.5-.8 2.2-1.1.4-.2.8-.3 1.2-.4.4-.1.8-.2 1.1-.3l.2-.1c1.2-.3 1.6-1.8.7-2.6l-.1-.1c-2.1-3.1-4.2-6.2-6.1-9.4-1-1.6-1.9-3.2-2.7-4.8-.8-1.6-1.6-3.2-2.3-4.8-.7-1.6-1.2-3.2-1.7-4.8-.4-1.6-.7-3.1-.8-4.5 0-1.4.1-2.7.4-3.9.4-1.1.9-2.2 1.8-3.1l.3-.4.2-.2.2-.2c.3-.2.5-.5.8-.7.3-.2.5-.5.8-.7l.9-.6c1.2-.7 2.4-1.3 3.8-1.6 1.3-.3 2.7-.5 4.2-.4 1.4.1 2.8.4 4.2.8 2.7.9 5.3 2.7 7.4 5 1.1 1.1 2 2.4 2.8 3.8.8 1.4 1.6 2.8 2.2 4.4.2.4.3.8.4 1.2l.2.6.1.3.1.1c0 .1.1.3.2.4.1.2.1.3.2.5l.6.9c1 1.2 2.5 1.8 3.9 1.8.7 0 1.5-.2 2.2-.5.7-.3 1.3-.8 1.8-1.4l.6-.9v-.1l.1-.1.1-.3.6-1.2c.8-1.5 1.7-3 2.7-4.3 1.9-2.7 4.2-4.7 6.3-5.3 1.1-.3 2.2-.3 3.5 0 .6.2 1.3.4 2 .7.7.3 1.3.7 1.8 1 1 .7 1.6 1.5 2 2.5.4 1 .4 2.4.2 3.8-.3 1.5-.8 3.1-1.4 4.7-.7 1.6-1.5 3.2-2.4 4.7-1.8 3.1-3.9 6.2-6.2 9.1-1.9 2.5-4 4.9-6.1 7.3-1.7 1.9-3.5 3.7-5.4 5.3l-7.9 6.9-4-2c-.4-.2-.8-.1-1.1.3s-.2.8.1 1.1l4.2 4.4c.6.6 1.6.6 2.2.1l.2-.1 6.9-5.6c.8-.7 1.7-1.3 2.5-2 .7-.6 1.5-1.2 2.2-1.9.7-.6 1.5-1.3 2.2-1.9 2.9-2.6 5.7-5.3 8.3-8.1 2.7-2.9 5.2-5.9 7.5-9.2 1.1-1.7 2.2-3.4 3.2-5.3.9-1.9 1.8-3.9 2.3-6.1.5-2.2.7-4.8 0-7.5-.1-.3-.2-.7-.3-1l-.4-1c-.2-.7-.6-1.2-1-1.8-.1-.1-.2-.3-.3-.4l-.3-.4-.7-.8c-.2-.3-.5-.5-.7-.7l-.7-.7c-1-.8-2.1-1.5-3.1-2s-2.2-1-3.4-1.4c-2.4-.8-5.2-.9-7.8-.3-2.6.6-4.9 1.9-6.8 3.4-1.9 1.4-3.4 3.1-4.7 4.8-.1-.2-.3-.5-.4-.7-1.1-1.9-2.4-3.8-3.9-5.5-3-3.4-6.9-6.2-11.3-7.8-4.4-1.6-9.4-2-14.2-.8-2.4.6-4.6 1.6-6.7 2.8-.5.3-1 .7-1.5 1-.5.3-1 .7-1.4 1.1-.9.8-1.8 1.6-2.6 2.6-1.6 2-3 4.3-3.6 6.9-.7 2.5-.8 5.1-.5 7.5.3 2.4.9 4.6 1.7 6.6.8 2.1 1.8 4 2.9 5.7 2.2 3.6 4.7 6.7 7.5 9.6 1.4 1.4 2.8 2.8 4.4 4.1.1.1.2.2.3.2.8.7.7 2-.3 2.5-1.7.9-3.4 2-4.8 3.3-2.9 2.7-5.1 6.1-6.4 9.8l-.8 2.7v.1c-.1.5-.2.9-.3 1.4-.1.5-.1 1-.2 1.5-.2 2-.1 4.1.4 6.2.2 1 .6 2 1.1 3 .5 1 1 1.9 1.6 2.7 1.2 1.7 2.8 3.2 4.4 4.4 1.7 1.2 3.4 2.2 5.3 3 .9.4 1.9.7 2.9 1 1 .3 2 .5 3.1.6l12.7 40.8c.5 1.6 2 2.8 3.7 2.8h.3l54.7 2.1c3 .1 5.7-2 6.2-5l8.2-47.1c.3-.2.6-.3.8-.5.5-.3.9-.6 1.3-.9.4-.3.9-.6 1.3-.9l1.2-1 .6-.5.1-.1.6-.5c1.6-1.4 3-3 4.3-4.8 1.3-1.8 2.4-3.9 3.2-6.1.8-2.2 1.2-4.7 1.2-7.1-.5-2-.9-4.4-1.7-6.7 0 .1 0 .1 0 0zm-31.6 64.7c-.7 2.6-3 4.4-5.6 4.5L80 172.1c-1.7.1-3.2-.9-3.9-2.5L63 137.1c.4 0 .7-.1 1.1-.2 2-.3 3.9-.9 5.8-1.6 1.8-.7 3.6-1.4 5.2-2.2 1.7-.7 3.2-1.5 4.8-2 1.5-.6 3-1 4.5-1.3.4-.1.7-.1 1.1-.1.2 0 .3 0 .5-.1h.6c.8-.1 1.6 0 2.4 0 3.3.1 6.6.6 10 1.3 3.4.7 6.9 1.6 10.4 2.4 3.6.8 7.3 1.6 11.2 2 1.9.2 3.9.3 6 .3 1 0 2-.1 3-.2h.1c1-.1 2-.2 3.1-.5.3-.1.6-.1.9-.2l-8.4 31.4z" fill="#FA824C"></path>
    </g>
</svg>