<svg preserveAspectRatio="xMidYMid meet" data-bbox="19.977 38.5 160.334 123" viewBox="19.977 38.5 160.334 123" height="200" width="200" xmlns="http://www.w3.org/2000/svg" data-type="tint" role="presentation" aria-hidden="true">
    <g>
        <path d="M178.3 64.6c-2-1.8-5.2-1.7-7.3.3l-21.5 21.5c-1.4 1.4-3.7 1.4-5.1 0-1.4-1.4-1.4-3.7 0-5.1L159.7 66c2-2 2.2-5.2.3-7.3-1-1.1-2.3-1.7-3.7-1.7-1.4 0-2.8.5-3.8 1.5L137 74c-1.4 1.3-3.7 1.4-5.1 0-.7-.7-1-1.6-1-2.5 0-1 .4-1.9 1-2.5l21.5-21.5c2-2 2.2-5.2.3-7.3-1-1.1-2.3-1.7-3.7-1.7-1.4 0-2.8.5-3.8 1.5l-32.7 32.6c-3 3-4.7 7-4.7 11.3 0 4.3 1.7 8.3 4.7 11.3l1.1 1.1-18.1 18L78.4 96c4.3-10.3-.2-25-11.2-35.9-6.5-6.5-14.4-10.9-22.2-12.3-8-1.5-15 .3-19.6 4.9-9.5 9.5-6.2 28.2 7.4 41.7 12 11.9 27.7 16.1 38.1 10.2l17.8 17.8-28.5 28.5c-2.1 2.1-2.4 5.6-.5 7.8 1 1.2 2.5 2 4.2 2.1h.3c1.5 0 3-.6 4.1-1.7L97 130.5l29.4 29.3c1.1 1.1 2.6 1.7 4.1 1.7 1.5 0 2.9-.6 4.1-1.7 2.2-2.2 2.2-5.9 0-8.1l-29.4-29.3 18.1-18 .3.3c6.2 6.2 16.3 6.2 22.5 0l32.7-32.6c1-1 1.6-2.4 1.5-3.8-.3-1.4-.9-2.8-2-3.7z" fill="#FA824C"></path>
    </g>
</svg>