<svg preserveAspectRatio="xMidYMid meet" data-bbox="32 26.5 136 147" viewBox="32 26.5 136 147" height="200" width="200" xmlns="http://www.w3.org/2000/svg" data-type="tint" role="presentation" aria-hidden="true">
    <g>
        <path d="M43.628 158.166h92.571V173.5H43.628v-15.334zM163.34 94.318l-27.142 32.752v25.509h-92.57v-7.456C37.153 144.737 32 139.347 32 132.758c0-6.59 5.153-11.98 11.628-12.366V72.928c0-25.641 20.723-46.428 46.285-46.428 22.979 0 42.036 16.8 45.656 38.82 7.309-5.623 17.771-5.65 25.153.505 8.567 7.144 9.739 19.9 2.618 28.493zM43.628 142.467v-19.419c-5.014.38-8.981 4.585-8.981 9.71s3.967 9.329 8.981 9.709z" fill="#FA824C"></path>
    </g>
</svg>