<svg preserveAspectRatio="xMidYMid meet" data-bbox="22 15 156 170" viewBox="22 15 156 170" height="200" width="200" xmlns="http://www.w3.org/2000/svg" data-type="tint" role="presentation" aria-hidden="true">
    <g>
        <path d="M157.2 79.2l-15 74.9L56.6 137l15-74.9 85.6 17.1zM178 20.6l-6.2 114.9-18-1-10.2 50.5-101.1-20.5 4.8-23.8L22 54.5l51.7-15.1L75 15l103 5.6zM51.5 126.5L32.3 60.7l42-12.3.1-2.2-44.7 13 20.9 71.7.9-4.4zm108.2-48.9L70 59.6l-15.8 79 89.7 18 15.8-79zm12.7-52l-92.3-5-1.8 33.7 2.1.4 1.7-31.9 88.1 4.7-4.4 82.5-6.9-.4-.4 2.1 9.3.5 4.6-86.6z" fill="#FA824C"></path>
    </g>
</svg>